<svg xmlns="http://www.w3.org/2000/svg" xmlns:xlink="http://www.w3.org/1999/xlink" xmlns:lucid="lucid" width="1760" height="1360"><g transform="translate(0 0)" lucid:page-tab-id="0_0"><path d="M130.84 349a9.03 9.03 0 0 1 7.95-8.97l157.62-19.07a7.1 7.1 0 0 1 7.95 7.04v110.43a8 8 0 0 1-8 8H138.84a8 8 0 0 1-8-8z" stroke="#000" stroke-opacity="0" stroke-width="2" fill="#ff8839"/><use xlink:href="#a" transform="matrix(1,0,0,1,135.84507042253495,346.0716677829874) translate(12.599999999999994 40.8)"/><use xlink:href="#b" transform="matrix(1,0,0,1,135.84507042253495,346.0716677829874) translate(95.55 40.8)"/><use xlink:href="#c" transform="matrix(1,0,0,1,135.84507042253495,346.0716677829874) translate(42.075 62.4)"/><use xlink:href="#d" transform="matrix(1,0,0,1,135.84507042253495,346.0716677829874) translate(91.92500000000001 62.4)"/><path d="M211.08 766.76a11.28 11.28 0 0 1 13.05 0l84.56 59.94a5.67 5.67 0 0 1 0 9.25l-84.57 59.95a11.28 11.28 0 0 1-13.05 0l-84.55-59.94a5.67 5.67 0 0 1 0-9.26z" stroke="#fe5900" stroke-width="4" fill="#fff"/><use xlink:href="#e" transform="matrix(1,0,0,1,125,767.1323806968167) translate(21.174999999999997 57.3)"/><use xlink:href="#f" transform="matrix(1,0,0,1,125,767.1323806968167) translate(58.125 57.3)"/><use xlink:href="#g" transform="matrix(1,0,0,1,125,767.1323806968167) translate(112.02499999999999 57.3)"/><use xlink:href="#h" transform="matrix(1,0,0,1,125,767.1323806968167) translate(51 78.9)"/><path d="M769.67 769.37a8 8 0 0 1 8-8h159.7a8 8 0 0 1 8 8v99.47c-29.35-17.95-47.63-17.95-58.7-17.95-17.56 0-40.93 17.94-58.5 17.94-10.9 0-29.34 0-58.5-17.95z" stroke="#fff" fill="#ff9e56"/><path d="M779.43 778.86a8 8 0 0 1 8-8h159.7a8 8 0 0 1 8 8v99.46c-29.35-17.95-47.63-17.95-58.7-17.95-17.56 0-40.93 17.95-58.5 17.95-10.9 0-29.34 0-58.5-17.95z" stroke="#fff" fill="#ff9e56"/><path d="M789.2 788.34a8 8 0 0 1 8-8h159.68a8 8 0 0 1 8 8v99.46c-29.34-17.94-47.62-17.94-58.68-17.94-17.57 0-40.94 17.94-58.5 17.94-10.9 0-29.35 0-58.5-17.94z" stroke="#fff" fill="#ff9e56"/><use xlink:href="#i" transform="matrix(1,0,0,1,794.1870602956017,785.3388665838607) translate(50.05 43.6)"/><use xlink:href="#j" transform="matrix(1,0,0,1,794.1870602956017,785.3388665838607) translate(75.05 43.6)"/><path d="M1059.38 549.25a8 8 0 0 1 8-8h157.52a8 8 0 0 1 8 8v99.9a8 8 0 0 1-8 8h-157.53a8 8 0 0 1-8-8z" stroke="#000" stroke-opacity="0" stroke-width="2" fill="#ff8839"/><use xlink:href="#k" transform="matrix(1,0,0,1,1064.3752072773934,546.2525469274073) translate(42.5 45.8)"/><use xlink:href="#l" transform="matrix(1,0,0,1,1064.3752072773934,546.2525469274073) translate(47.5 45.8)"/><use xlink:href="#m" transform="matrix(1,0,0,1,1064.3752072773934,546.2525469274073) translate(38.4 67.4)"/><path d="M335.84 832.33H314.1l-.02-2h21.76zm78.38 0h-47.27v-2h47.27z" stroke="#008a0e" stroke-width=".05" fill="#008a0e"/><path d="M314.1 832.33H313l.08-1-.1-1h1.13z" fill="#008a0e"/><path d="M314.14 832.35h-1.18l.1-1.02-.1-1.03h1.18zm-1.12-2l.1.98-.1.97h1.07v-1.95z" stroke="#008a0e" stroke-width=".05" fill="#008a0e"/><path d="M428.72 830.7l-14.05 5.25-.4-9.26z" fill="#008a0e"/><path d="M431.96 830.56l-18.23 6.8-.52-12zm-16.35 3.97l9.9-3.7-10.17-2.8z" stroke="#008a0e" stroke-width=".05" fill="#008a0e"/><use xlink:href="#n" transform="matrix(1,0,0,1,335.84195771335624,821.995080725692) translate(0 12.444444444444446)"/><path d="M218.6 960.33l.4.4.13.5v42.48h-2v-41.84l-.4-.4-.12-.5V944h2zm0-35h-2v-24.35h2z" stroke="#e81313" stroke-width=".05" fill="#e81313"/><path d="M217.6 899.98l1-.06v1.1h-2v-1.1z" fill="#e81313"/><path d="M217.6 899.96l1.03-.07v1.13h-2.05v-1.14zm-.97 1.02h1.95v-1.03l-.97.05-.97-.05z" stroke="#e81313" stroke-width=".05" fill="#e81313"/><path d="M218.13 1018.98l-4.64-14.27h9.26z" fill="#e81313"/><path d="M218.13 1022.2l-6.02-18.5h12.04zm-3.26-16.5l3.25 10.04 3.26-10.03z" stroke="#e81313" stroke-width=".05" fill="#e81313"/><use xlink:href="#o" transform="matrix(1,0,0,1,205.9605720744216,925.3299986229573) translate(0 12.444444444444446)"/><path d="M270.18 1022.2c19.17 0 34.7 18.88 34.7 42.16 0 23.27-15.53 42.14-34.7 42.14h-104.1c-19.18 0-34.72-18.87-34.72-42.14 0-23.28 15.54-42.15 34.7-42.15z" stroke="#000" stroke-opacity="0" fill="#ffeadb"/><use xlink:href="#p" transform="matrix(1,0,0,1,136.3642163310728,1027.213328867952) translate(9.049999999999997 41.1)"/><use xlink:href="#q" transform="matrix(1,0,0,1,136.3642163310728,1027.213328867952) translate(51 41.1)"/><use xlink:href="#r" transform="matrix(1,0,0,1,136.3642163310728,1027.213328867952) translate(134.95 41.1)"/><path d="M453.15 78.58a8 8 0 0 1 8-8h836.75a8 8 0 0 1 8 8v25.15a8 8 0 0 1-8 8H461.15a8 8 0 0 1-8-8z" stroke="#000" stroke-opacity="0" stroke-width="2" fill="#fff" fill-opacity="0"/><use xlink:href="#s" transform="matrix(1,0,0,1,457.14655278534315,74.57761197839864) translate(364.0420987654321 23.657777777777778)"/><path d="M709.44 110.4h347.9M709.47 110.4h-1.03M1057.3 110.4h1.03" stroke="#a9afb8" stroke-width="2" fill="none"/><path d="M453.15 119.73a8 8 0 0 1 8-8h837.7a8 8 0 0 1 8 8v2.85a8 8 0 0 1-8 8h-837.7a8 8 0 0 1-8-8z" stroke="#000" stroke-opacity="0" stroke-width="2" fill="#fff" fill-opacity="0"/><use xlink:href="#t" transform="matrix(1,0,0,1,457.1465527853436,115.73283593529744) translate(334.72342592592594 14.917037037037037)"/><use xlink:href="#u" transform="matrix(1,0,0,1,457.1465527853436,115.73283593529744) translate(385.66859053497944 14.917037037037037)"/><use xlink:href="#v" transform="matrix(1,0,0,1,457.1465527853436,115.73283593529744) translate(423.05953703703705 14.917037037037037)"/><use xlink:href="#w" transform="matrix(1,0,0,1,457.1465527853436,115.73283593529744) translate(435.50902263374485 14.917037037037037)"/><use xlink:href="#x" transform="matrix(1,0,0,1,457.1465527853436,115.73283593529744) translate(466.9089197530864 14.917037037037037)"/><use xlink:href="#y" transform="matrix(1,0,0,1,457.1465527853436,115.73283593529744) translate(483.904804526749 14.917037037037037)"/><path d="M60 42.2a16 16 0 0 1 16-16h208a16 16 0 0 1 16 16v148a16 16 0 0 1-16 16H76a16 16 0 0 1-16-16z" stroke="#dfe3e8" stroke-width="2" fill="#cfe4ff"/><path d="M135.45 117.8c0 8.94-7.24 16.17-16.17 16.17-8.93 0-16.17-7.23-16.17-16.16 0-8.92 7.25-16.16 16.18-16.16s16.17 7.24 16.17 16.17z" stroke="#000" stroke-opacity=".25" fill="#7ab648"/><path d="M135.45 160.92c0 8.93-7.24 16.17-16.17 16.17-8.93 0-16.17-7.25-16.17-16.18s7.25-16.17 16.18-16.17 16.17 7.24 16.17 16.17z" stroke="#000" stroke-opacity=".25" fill="#c92d39"/><use xlink:href="#z" transform="matrix(1,0,0,1,103.11377245508982,58.52555616635188) translate(17.049999999999997 14.4)"/><use xlink:href="#A" transform="matrix(1,0,0,1,103.11377245508982,58.52555616635188) translate(36.525 38.160000000000004)"/><use xlink:href="#B" transform="matrix(1,0,0,1,151.61676646706587,101.6393286214417) translate(0 19.3)"/><use xlink:href="#C" transform="matrix(1,0,0,1,151.61676646706587,144.75310107653155) translate(0 19.3)"/><path d="M518 760.02a11.28 11.28 0 0 1 13.06 0l84.56 59.94a5.67 5.67 0 0 1 0 9.26l-84.56 59.94a11.28 11.28 0 0 1-13.05 0l-84.54-59.94a5.67 5.67 0 0 1 0-9.26z" stroke="#fe5900" stroke-width="4" fill="#fff"/><use xlink:href="#e" transform="matrix(1,0,0,1,431.93091945225126,760.3933355659256) translate(1.7249999999999943 57.3)"/><use xlink:href="#D" transform="matrix(1,0,0,1,431.93091945225126,760.3933355659256) translate(38.675 57.3)"/><use xlink:href="#E" transform="matrix(1,0,0,1,431.93091945225126,760.3933355659256) translate(74.575 57.3)"/><use xlink:href="#g" transform="matrix(1,0,0,1,431.93091945225126,760.3933355659256) translate(131.475 57.3)"/><use xlink:href="#F" transform="matrix(1,0,0,1,431.93091945225126,760.3933355659256) translate(48.5 78.9)"/><use xlink:href="#G" transform="matrix(1,0,0,1,431.93091945225126,760.3933355659256) translate(127.5 78.9)"/><path d="M534.8 955.93l.02 47.78h-2l-.02-47.77v-19.47h2zm0-38.14h-2v-27.13h2z" stroke="#e81313" stroke-width=".05" fill="#e81313"/><path d="M534.8 890.7h-2v-.32l2-1.42z" fill="#e81313"/><path d="M534.83 890.72h-2.05v-.36l2.05-1.45zm-2-.33v.27h1.95V889z" stroke="#e81313" stroke-width=".05" fill="#e81313"/><path d="M533.82 1018.98l-4.63-14.27h9.26z" fill="#e81313"/><path d="M533.82 1022.2l-6-18.5h12.02zm-3.25-16.5l3.25 10.04 3.26-10.03z" stroke="#e81313" stroke-width=".05" fill="#e81313"/><use xlink:href="#H" transform="matrix(1,0,0,1,522.1588208960633,917.7898709851466) translate(0 12.444444444444446)"/><path d="M584.17 1022.2c19.17 0 34.7 18.88 34.7 42.16 0 23.27-15.53 42.14-34.7 42.14h-104.1c-19.18 0-34.72-18.87-34.72-42.14 0-23.28 15.54-42.15 34.7-42.15z" stroke="#000" stroke-opacity="0" fill="#ffeadb"/><use xlink:href="#I" transform="matrix(1,0,0,1,450.35211267605644,1027.213328867952) translate(17.099999999999994 41.1)"/><use xlink:href="#J" transform="matrix(1,0,0,1,450.35211267605644,1027.213328867952) translate(85 41.1)"/><use xlink:href="#K" transform="matrix(1,0,0,1,450.35211267605644,1027.213328867952) translate(126.9 41.1)"/><path d="M652.22 825.6h-31.2v-2h31.2zm98.44 0h-67.32v-2h67.32z" stroke="#008a0e" stroke-width=".05" fill="#008a0e"/><path d="M621.04 825.6h-1.12l.1-1-.1-1h1.12z" fill="#008a0e"/><path d="M621.07 825.6h-1.18l.1-1-.1-1.04h1.17zm-1.12-2l.1 1-.1.96h1.07v-1.95z" stroke="#008a0e" stroke-width=".05" fill="#008a0e"/><path d="M765.93 824.6l-14.27 4.63v-9.28z" fill="#008a0e"/><path d="M769.17 824.6l-18.5 6v-12.02zm-16.5 3.25l10.02-3.26-10.04-3.27z" stroke="#008a0e" stroke-width=".05" fill="#008a0e"/><use xlink:href="#L" transform="matrix(1,0,0,1,652.2239391604151,815.2560355948009) translate(0 12.444444444444446)"/><path d="M217.6 446.93v91.97" stroke="#3a414a" fill="none"/><path d="M218.1 446.94h-1v-.5h1z" stroke="#3a414a" stroke-width=".05" fill="#3a414a"/><path d="M217.6 553.67l-4.63-14.27h9.27z" stroke="#3a414a" fill="#3a414a"/><path d="M867.27 760.37V395.2a12 12 0 0 1 12-12h157.02" stroke="#3a414a" fill="none"/><path d="M867.77 760.87h-1v-.5h1z" stroke="#3a414a" stroke-width=".05" fill="#3a414a"/><path d="M1051.06 383.2l-14.27 4.65v-9.27z" stroke="#3a414a" fill="#3a414a"/><path d="M1165.44 767.13a11.28 11.28 0 0 1 13.06 0l84.55 59.94a5.67 5.67 0 0 1 0 9.26l-84.55 59.94a11.28 11.28 0 0 1-13.06 0l-84.55-59.94a5.67 5.67 0 0 1 0-9.26z" stroke="#fe5900" stroke-width="4" fill="#fff"/><use xlink:href="#M" transform="matrix(1,0,0,1,1079.3661971830988,767.5050234427358) translate(17.9375 70.79583333333333)"/><use xlink:href="#N" transform="matrix(1,0,0,1,1079.3661971830988,767.5050234427358) translate(92.26041666666667 70.79583333333333)"/><path d="M130.84 563.3a8 8 0 0 1 8-8h157.53a8 8 0 0 1 8 8v93.9a8 8 0 0 1-8 8H138.84a8 8 0 0 1-8-8z" stroke="#000" stroke-opacity="0" stroke-width="2" fill="#ff8839"/><use xlink:href="#O" transform="matrix(1,0,0,1,135.84507042253495,560.2890485961481) translate(3.6499999999999915 53.6)"/><use xlink:href="#P" transform="matrix(1,0,0,1,135.84507042253495,560.2890485961481) translate(57.54999999999999 53.6)"/><use xlink:href="#Q" transform="matrix(1,0,0,1,135.84507042253495,560.2890485961481) translate(111.45 53.6)"/><path d="M217.6 665.7v80.6" stroke="#3a414a" fill="none"/><path d="M218.1 665.72h-1v-.5h1z" stroke="#3a414a" stroke-width=".05" fill="#3a414a"/><path d="M217.6 761.06l-4.63-14.27h9.27z" stroke="#3a414a" fill="#3a414a"/><path d="M1224.03 1022.2c19.16 0 34.7 18.88 34.7 42.16 0 23.27-15.54 42.14-34.7 42.14H1119.9c-19.15 0-34.7-18.87-34.7-42.14 0-23.28 15.55-42.15 34.7-42.15z" stroke="#000" stroke-opacity="0" fill="#ffeadb"/><use xlink:href="#R" transform="matrix(1,0,0,1,1090.211267605634,1027.213328867952) translate(37.099999999999994 30.299999999999997)"/><use xlink:href="#S" transform="matrix(1,0,0,1,1090.211267605634,1027.213328867952) translate(42.099999999999994 30.299999999999997)"/><use xlink:href="#T" transform="matrix(1,0,0,1,1090.211267605634,1027.213328867952) translate(74.1 30.299999999999997)"/><use xlink:href="#U" transform="matrix(1,0,0,1,1090.211267605634,1027.213328867952) translate(35.099999999999994 51.9)"/><use xlink:href="#V" transform="matrix(1,0,0,1,1090.211267605634,1027.213328867952) translate(108.9 51.9)"/><path d="M1162.15 958.93l-.02 44.78h-2l.02-44.77v-18.16h2zm0-36.83h-2v-25.42h2z" stroke="#e81313" stroke-width=".05" fill="#e81313"/><path d="M1162.15 896.4v.3h-2v-1.73z" fill="#e81313"/><path d="M1162.17 896.37v.36h-2.05v-1.8zm-2 .3h1.95v-.27l-1.94-1.38z" stroke="#e81313" stroke-width=".05" fill="#e81313"/><path d="M1161.13 1018.98l-4.64-14.27h9.26z" fill="#e81313"/><path d="M1161.13 1022.2l-6.02-18.5h12.04zm-3.26-16.5l3.26 10.04 3.26-10.03z" stroke="#e81313" stroke-width=".05" fill="#e81313"/><g><use xlink:href="#H" transform="matrix(1,0,0,1,1149.5054053517122,922.1026621414741) translate(0 12.444444444444446)"/></g><path d="M1173.1 657.65v51.88a.57.57 0 0 1-.56.57.57.57 0 0 0-.57.56v36" stroke="#3a414a" fill="none"/><path d="M1173.6 657.66h-1v-.5h1z" stroke="#3a414a" stroke-width=".05" fill="#3a414a"/><path d="M1171.97 761.43l-4.63-14.26h9.27z" stroke="#3a414a" fill="#3a414a"/><path d="M1464.8 770.5a8 8 0 0 1 8-8h159.68a8 8 0 0 1 8 8v99.47c-29.34-17.95-47.6-17.95-58.68-17.95-17.57 0-40.94 17.95-58.5 17.95-10.9 0-29.35 0-58.5-17.95z" stroke="#fff" fill="#ff9e56"/><path d="M1474.55 780a8 8 0 0 1 8-8h159.7a8 8 0 0 1 8 8v99.45c-29.35-17.94-47.62-17.94-58.7-17.94-17.56 0-40.93 17.95-58.5 17.95-10.9 0-29.34 0-58.5-17.94z" stroke="#fff" fill="#ff9e56"/><path d="M1484.3 789.47a8 8 0 0 1 8-8H1652a8 8 0 0 1 8 8v99.46C1630.66 871 1612.4 871 1601.32 871c-17.57 0-40.94 17.93-58.5 17.93-10.9 0-29.35 0-58.5-17.94z" stroke="#fff" fill="#ff9e56"/><g><use xlink:href="#W" transform="matrix(1,0,0,1,1489.3098591549297,786.4695244474245) translate(33.5 43.6)"/><use xlink:href="#X" transform="matrix(1,0,0,1,1489.3098591549297,786.4695244474245) translate(58.5 43.6)"/></g><path d="M1052.68 349a8.98 8.98 0 0 1 7.94-8.94l164.65-19.14a7.12 7.12 0 0 1 7.95 7.08v110.43a8 8 0 0 1-8 8h-164.54a8 8 0 0 1-8-8z" stroke="#000" stroke-opacity="0" stroke-width="2" fill="#ff8839"/><g><use xlink:href="#k" transform="matrix(1,0,0,1,1057.6760563380285,346.0716677829874) translate(0.5999999999999943 40.8)"/><use xlink:href="#Y" transform="matrix(1,0,0,1,1057.6760563380285,346.0716677829874) translate(5.599999999999994 40.8)"/><use xlink:href="#Z" transform="matrix(1,0,0,1,1057.6760563380285,346.0716677829874) translate(46.5 40.8)"/><use xlink:href="#aa" transform="matrix(1,0,0,1,1057.6760563380285,346.0716677829874) translate(98.4 40.8)"/><use xlink:href="#ab" transform="matrix(1,0,0,1,1057.6760563380285,346.0716677829874) translate(70.5 62.4)"/></g><path d="M1160.5 446.93v77.94" stroke="#3a414a" fill="none"/><path d="M1161 446.94h-1v-.5h1z" stroke="#3a414a" stroke-width=".05" fill="#3a414a"/><path d="M1160.5 539.63l-4.64-14.26h9.27z" stroke="#3a414a" fill="#3a414a"/><path d="M1247.9 328a8 8 0 0 1 8-8h200.9a8 8 0 0 1 8 8v110.43a8 8 0 0 1-8 8h-200.9a8 8 0 0 1-8-8z" fill="none"/><path d="M1247.9 446.43c5.5 0 10-4.48 10-10V393.2c0-5.5 4.46-10 10-10-5.54 0-10-4.46-10-10V330c0-5.52-4.5-10-10-10" stroke="#3a414a" fill="none"/><g><use xlink:href="#ac" transform="matrix(1,0,0,1,1282.8873239436623,325) translate(0.6499999999999915 40.5)"/><use xlink:href="#ad" transform="matrix(1,0,0,1,1282.8873239436623,325) translate(43.5 40.5)"/><use xlink:href="#ae" transform="matrix(1,0,0,1,1282.8873239436623,325) translate(120.5 40.5)"/><use xlink:href="#af" transform="matrix(1,0,0,1,1282.8873239436623,325) translate(130.5 40.5)"/><use xlink:href="#ag" transform="matrix(1,0,0,1,1282.8873239436623,325) translate(5.549999999999997 62.1)"/><use xlink:href="#ah" transform="matrix(1,0,0,1,1282.8873239436623,325) translate(25.549999999999997 62.1)"/><use xlink:href="#ai" transform="matrix(1,0,0,1,1282.8873239436623,325) translate(90.55 62.1)"/><use xlink:href="#aj" transform="matrix(1,0,0,1,1282.8873239436623,325) translate(110.55 62.1)"/><use xlink:href="#ak" transform="matrix(1,0,0,1,1282.8873239436623,325) translate(156.45 62.1)"/><use xlink:href="#al" transform="matrix(1,0,0,1,1282.8873239436623,325) translate(57.05 83.70000000000002)"/><use xlink:href="#am" transform="matrix(1,0,0,1,1282.8873239436623,325) translate(109.95 83.70000000000002)"/></g><path d="M1314.93 832.7h-46.48v-2h46.48zm130.86 0h-99.76v-2h99.75z" stroke="#008a0e" stroke-width=".05" fill="#008a0e"/><path d="M1268.48 832.7h-1.12l.1-1-.1-1h1.12z" fill="#008a0e"/><path d="M1268.5 832.73h-1.17l.1-1.03-.1-1.02h1.17zm-1.12-2l.1.97-.1.98h1.07v-1.95z" stroke="#008a0e" stroke-width=".05" fill="#008a0e"/><path d="M1461.05 831.7l-14.26 4.63v-9.27z" fill="#008a0e"/><path d="M1464.3 831.7l-18.5 6v-12zm-16.5 3.26l10.02-3.26-10.03-3.26z" stroke="#008a0e" stroke-width=".05" fill="#008a0e"/><g><use xlink:href="#L" transform="matrix(1,0,0,1,1314.9313277364188,822.3677234716112) translate(0 12.444444444444446)"/></g><defs><path fill="#fff" d="M11 0l48-248h184l-5 28H87l-15 79h140l-5 27H67L50-27h158l-5 27H11" id="an"/><path fill="#fff" d="M67 3c-93-2-31-127-26-193h32L48-50c-3 39 53 32 70 12 30-34 30-101 43-152h32L157 0h-30c1-10 6-24 4-33-14 20-29 37-64 36" id="ao"/><path fill="#fff" d="M66-151c12-25 30-51 66-40l-6 26C45-176 58-65 38 0H6l36-190h30" id="ap"/><path fill="#fff" d="M30-147c31-64 166-65 159 27C183-49 158 1 86 4 9 8 1-88 30-147zM88-20c53 0 68-48 68-100 0-31-11-51-44-50-52 1-68 46-68 97 0 32 13 53 44 53" id="aq"/><path fill="#fff" d="M67-162c32-53 139-36 121 50C175-51 163 2 97 4 68 4 52-11 42-31 38 6 28 39 22 75H-9l50-265h29c-1 10 0 20-3 28zm89 36c0-26-10-43-35-43-54 0-67 50-69 103-1 29 14 45 42 46 53 0 62-58 62-106" id="ar"/><path fill="#fff" d="M111-194c62-3 86 47 72 106H45c-7 38 6 69 45 68 27-1 43-14 53-32l24 11C152-15 129 4 87 4 38 3 12-23 12-71c0-70 32-119 99-123zm44 81c14-66-71-72-95-28-4 8-8 17-11 28h106" id="as"/><path fill="#fff" d="M165-48c-4 18 1 34 23 27l-3 20c-29 8-62 0-52-35h-2C116-14 99 4 63 4 30 4 8-16 8-49c0-68 71-67 138-67 10-26 0-56-31-54-26 1-42 9-47 31l-32-5c8-67 160-71 144 15-5 28-9 54-15 81zM42-50c3 52 80 24 89-6 7-12 7-24 11-38-47 1-103-4-100 44" id="at"/><path fill="#fff" d="M67-158c22-48 132-52 116 29L158 0h-32l25-140c3-38-53-32-70-12C52-117 51-52 38 0H6l36-190h30" id="au"/><g id="a"><use transform="matrix(0.05,0,0,0.05,0,0)" xlink:href="#an"/><use transform="matrix(0.05,0,0,0.05,12,0)" xlink:href="#ao"/><use transform="matrix(0.05,0,0,0.05,22,0)" xlink:href="#ap"/><use transform="matrix(0.05,0,0,0.05,27.950000000000003,0)" xlink:href="#aq"/><use transform="matrix(0.05,0,0,0.05,37.95,0)" xlink:href="#ar"/><use transform="matrix(0.05,0,0,0.05,47.95,0)" xlink:href="#as"/><use transform="matrix(0.05,0,0,0.05,57.95,0)" xlink:href="#at"/><use transform="matrix(0.05,0,0,0.05,67.95,0)" xlink:href="#au"/></g><path fill="#fff" d="M125-24c46 0 70-25 89-51l25 16C214-24 183 4 123 4 8 4-5-146 60-208c32-50 158-61 191-5 5 7 9 14 11 22l-32 10c-9-28-33-43-69-43-74 0-108 51-108 125 0 46 24 75 72 75" id="av"/><path fill="#fff" d="M50-231l6-30h32l-6 30H50zM6 0l37-190h31L37 0H6" id="aw"/><path fill="#fff" d="M51-54c-9 22 5 41 31 30L79-1C43 14 10-4 19-52l22-115H19l5-23h22l19-43h21l-9 43h35l-4 23H73" id="ax"/><path fill="#fff" d="M6 0l50-261h32L37 0H6" id="ay"/><g id="b"><use transform="matrix(0.05,0,0,0.05,0,0)" xlink:href="#av"/><use transform="matrix(0.05,0,0,0.05,12.950000000000001,0)" xlink:href="#at"/><use transform="matrix(0.05,0,0,0.05,22.950000000000003,0)" xlink:href="#ar"/><use transform="matrix(0.05,0,0,0.05,32.95,0)" xlink:href="#aw"/><use transform="matrix(0.05,0,0,0.05,36.900000000000006,0)" xlink:href="#ax"/><use transform="matrix(0.05,0,0,0.05,41.900000000000006,0)" xlink:href="#at"/><use transform="matrix(0.05,0,0,0.05,51.900000000000006,0)" xlink:href="#ay"/></g><path fill="#fff" d="M55-144c13 50 104 24 104 88C159 21 15 23 1-39l26-10c6 40 102 42 102-4-13-50-104-23-104-87 0-71 143-71 148-8l-29 4c-5-35-85-37-89 0" id="az"/><g id="c"><use transform="matrix(0.05,0,0,0.05,0,0)" xlink:href="#av"/><use transform="matrix(0.05,0,0,0.05,12.950000000000001,0)" xlink:href="#aw"/><use transform="matrix(0.05,0,0,0.05,16.900000000000002,0)" xlink:href="#ax"/><use transform="matrix(0.05,0,0,0.05,21.900000000000002,0)" xlink:href="#aw"/><use transform="matrix(0.05,0,0,0.05,25.85,0)" xlink:href="#as"/><use transform="matrix(0.05,0,0,0.05,35.85,0)" xlink:href="#az"/></g><path fill="#fff" d="M-7 75l65-336h72l-5 23H84L28 52h41l-4 23H-7" id="aA"/><path fill="#fff" d="M148-71c0-36-31-44-71-41l5-28c46 3 81-6 81-50 0-23-15-35-39-35-30 0-49 17-56 41l-32-3c12-39 42-63 90-64 43 0 69 19 71 60 1 43-30 58-65 66 27 5 49 22 49 53 0 85-133 99-164 35-4-7-7-15-9-22l29-9c8 25 25 45 58 45 34 1 53-17 53-48" id="aB"/><path fill="#fff" d="M16-82c0-90 25-169 113-169 48 0 68 33 68 82C197-79 170 4 84 4 37 4 16-31 16-82zm30 5c0 32 11 55 40 55 69 0 76-79 80-149 2-32-10-55-39-55-69 0-81 81-81 149" id="aC"/><path fill="#fff" d="M-30 75l5-23h40l57-290H31l4-23h72L42 75h-72" id="aD"/><g id="d"><use transform="matrix(0.05,0,0,0.05,0,0)" xlink:href="#aA"/><use transform="matrix(0.05,0,0,0.05,5,0)" xlink:href="#aB"/><use transform="matrix(0.05,0,0,0.05,15,0)" xlink:href="#aC"/><use transform="matrix(0.05,0,0,0.05,25,0)" xlink:href="#aD"/></g><path fill="#333" d="M197 0v-115H63V0H30v-248h33v105h134v-105h34V0h-34" id="aE"/><path fill="#333" d="M141-36C126-15 110 5 73 4 37 3 15-17 15-53c-1-64 63-63 125-63 3-35-9-54-41-54-24 1-41 7-42 31l-33-3c5-37 33-52 76-52 45 0 72 20 72 64v82c-1 20 7 32 28 27v20c-31 9-61-2-59-35zM48-53c0 20 12 33 32 33 41-3 63-29 60-74-43 2-92-5-92 41" id="aF"/><path fill="#333" d="M135-143c-3-34-86-38-87 0 15 53 115 12 119 90S17 21 10-45l28-5c4 36 97 45 98 0-10-56-113-15-118-90-4-57 82-63 122-42 12 7 21 19 24 35" id="aG"/><g id="e"><use transform="matrix(0.05,0,0,0.05,0,0)" xlink:href="#aE"/><use transform="matrix(0.05,0,0,0.05,12.950000000000001,0)" xlink:href="#aF"/><use transform="matrix(0.05,0,0,0.05,22.950000000000003,0)" xlink:href="#aG"/></g><path fill="#333" d="M30-248c87 1 191-15 191 75 0 78-77 80-158 76V0H30v-248zm33 125c57 0 124 11 124-50 0-59-68-47-124-48v98" id="aH"/><path fill="#333" d="M100-194c62-1 85 37 85 99 1 63-27 99-86 99S16-35 15-95c0-66 28-99 85-99zM99-20c44 1 53-31 53-75 0-43-8-75-51-75s-53 32-53 75 10 74 51 75" id="aI"/><path fill="#333" d="M24 0v-261h32V0H24" id="aJ"/><path fill="#333" d="M24-231v-30h32v30H24zM24 0v-190h32V0H24" id="aK"/><path fill="#333" d="M96-169c-40 0-48 33-48 73s9 75 48 75c24 0 41-14 43-38l32 2c-6 37-31 61-74 61-59 0-76-41-82-99-10-93 101-131 147-64 4 7 5 14 7 22l-32 3c-4-21-16-35-41-35" id="aL"/><path fill="#333" d="M100-194c63 0 86 42 84 106H49c0 40 14 67 53 68 26 1 43-12 49-29l28 8c-11 28-37 45-77 45C44 4 14-33 15-96c1-61 26-98 85-98zm52 81c6-60-76-77-97-28-3 7-6 17-6 28h103" id="aM"/><g id="f"><use transform="matrix(0.05,0,0,0.05,0,0)" xlink:href="#aH"/><use transform="matrix(0.05,0,0,0.05,12,0)" xlink:href="#aI"/><use transform="matrix(0.05,0,0,0.05,22,0)" xlink:href="#aJ"/><use transform="matrix(0.05,0,0,0.05,25.950000000000003,0)" xlink:href="#aK"/><use transform="matrix(0.05,0,0,0.05,29.899999999999995,0)" xlink:href="#aL"/><use transform="matrix(0.05,0,0,0.05,38.9,0)" xlink:href="#aM"/></g><path fill="#333" d="M127-220V0H93v-220H8v-28h204v28h-85" id="aN"/><path fill="#333" d="M206 0h-36l-40-164L89 0H53L-1-190h32L70-26l43-164h34l41 164 42-164h31" id="aO"/><path fill="#333" d="M59-47c-2 24 18 29 38 22v24C64 9 27 4 27-40v-127H5v-23h24l9-43h21v43h35v23H59v120" id="aP"/><path fill="#333" d="M114-163C36-179 61-72 57 0H25l-1-190h30c1 12-1 29 2 39 6-27 23-49 58-41v29" id="aQ"/><g id="g"><use transform="matrix(0.05,0,0,0.05,0,0)" xlink:href="#aN"/><use transform="matrix(0.05,0,0,0.05,9.950000000000001,0)" xlink:href="#aO"/><use transform="matrix(0.05,0,0,0.05,22.900000000000002,0)" xlink:href="#aK"/><use transform="matrix(0.05,0,0,0.05,26.85,0)" xlink:href="#aP"/><use transform="matrix(0.05,0,0,0.05,31.85,0)" xlink:href="#aP"/><use transform="matrix(0.05,0,0,0.05,36.85,0)" xlink:href="#aM"/><use transform="matrix(0.05,0,0,0.05,46.85,0)" xlink:href="#aQ"/></g><path fill="#333" d="M205 0l-28-72H64L36 0H1l101-248h38L239 0h-34zm-38-99l-47-123c-12 45-31 82-46 123h93" id="aR"/><path fill="#333" d="M84 4C-5 8 30-112 23-190h32v120c0 31 7 50 39 49 72-2 45-101 50-169h31l1 190h-30c-1-10 1-25-2-33-11 22-28 36-60 37" id="aS"/><path fill="#333" d="M117-194c89-4 53 116 60 194h-32v-121c0-31-8-49-39-48C34-167 62-67 57 0H25l-1-190h30c1 10-1 24 2 32 11-22 29-35 61-36" id="aT"/><path fill="#333" d="M103-251c84 0 111 97 45 133-19 10-37 24-39 52H78c0-63 77-55 77-114 0-30-21-42-52-43-32 0-53 17-56 46l-32-2c7-45 34-72 88-72zM77 0v-35h34V0H77" id="aU"/><g id="h"><use transform="matrix(0.05,0,0,0.05,0,0)" xlink:href="#aR"/><use transform="matrix(0.05,0,0,0.05,12,0)" xlink:href="#aL"/><use transform="matrix(0.05,0,0,0.05,21,0)" xlink:href="#aL"/><use transform="matrix(0.05,0,0,0.05,30,0)" xlink:href="#aI"/><use transform="matrix(0.05,0,0,0.05,40,0)" xlink:href="#aS"/><use transform="matrix(0.05,0,0,0.05,50,0)" xlink:href="#aT"/><use transform="matrix(0.05,0,0,0.05,60,0)" xlink:href="#aP"/><use transform="matrix(0.05,0,0,0.05,65,0)" xlink:href="#aG"/><use transform="matrix(0.05,0,0,0.05,74,0)" xlink:href="#aU"/></g><path fill="#333" d="M27 0v-27h64v-190l-56 39v-29l58-41h29v221h61V0H27" id="aV"/><path fill="#333" d="M110-160c48 1 74 30 74 79 0 53-28 85-80 85-65 0-83-55-86-122-5-90 50-162 133-122 14 7 22 21 27 39l-31 6c-5-40-67-38-82-6-9 19-15 44-15 74 11-20 30-34 60-33zm-7 138c34 0 49-23 49-58s-16-56-50-56c-29 0-50 16-49 49 1 36 15 65 50 65" id="aW"/><g id="i"><use transform="matrix(0.05,0,0,0.05,0,0)" xlink:href="#aV"/><use transform="matrix(0.05,0,0,0.05,10,0)" xlink:href="#aW"/></g><g id="j"><use transform="matrix(0.05,0,0,0.05,0,0)" xlink:href="#aL"/><use transform="matrix(0.05,0,0,0.05,9,0)" xlink:href="#aK"/><use transform="matrix(0.05,0,0,0.05,12.949999999999998,0)" xlink:href="#aP"/><use transform="matrix(0.05,0,0,0.05,17.95,0)" xlink:href="#aK"/><use transform="matrix(0.05,0,0,0.05,21.9,0)" xlink:href="#aM"/><use transform="matrix(0.05,0,0,0.05,31.899999999999995,0)" xlink:href="#aG"/></g><path fill="#fff" d="M187 0l-14-72H61L19 0h-37l149-248h38L221 0h-34zm-19-99l-22-123L76-99h92" id="aX"/><path fill="#fff" d="M44-68c0 29 11 47 38 47 30 0 42-19 51-41l28 9C148-21 126 4 82 4 31 4 10-29 12-85c3-77 74-140 146-93 12 8 15 23 18 40l-31 5c-1-22-13-36-36-36-52 0-65 49-65 101" id="aY"/><g id="l"><use transform="matrix(0.05,0,0,0.05,0,0)" xlink:href="#aX"/><use transform="matrix(0.05,0,0,0.05,12,0)" xlink:href="#aY"/><use transform="matrix(0.05,0,0,0.05,21,0)" xlink:href="#aY"/><use transform="matrix(0.05,0,0,0.05,30,0)" xlink:href="#aq"/><use transform="matrix(0.05,0,0,0.05,40,0)" xlink:href="#ao"/><use transform="matrix(0.05,0,0,0.05,50,0)" xlink:href="#au"/><use transform="matrix(0.05,0,0,0.05,60,0)" xlink:href="#ax"/><use transform="matrix(0.05,0,0,0.05,65,0)" xlink:href="#az"/></g><path fill="#fff" d="M119 0H84L31-248h34l41 218 126-218h36" id="aZ"/><path fill="#fff" d="M133-28C103 26-5 8 13-77c13-62 24-115 90-117 29-1 46 15 56 35l19-102h32L160 0h-30zM45-64c-2 27 10 43 35 43 54-1 69-50 69-103 0-29-15-46-42-46-53-1-58 58-62 106" id="ba"/><g id="m"><use transform="matrix(0.05,0,0,0.05,0,0)" xlink:href="#aZ"/><use transform="matrix(0.05,0,0,0.05,11.35,0)" xlink:href="#at"/><use transform="matrix(0.05,0,0,0.05,21.35,0)" xlink:href="#ay"/><use transform="matrix(0.05,0,0,0.05,25.3,0)" xlink:href="#aw"/><use transform="matrix(0.05,0,0,0.05,29.25,0)" xlink:href="#ba"/><use transform="matrix(0.05,0,0,0.05,39.25,0)" xlink:href="#at"/><use transform="matrix(0.05,0,0,0.05,49.25,0)" xlink:href="#ax"/><use transform="matrix(0.05,0,0,0.05,54.25,0)" xlink:href="#aw"/><use transform="matrix(0.05,0,0,0.05,58.2,0)" xlink:href="#aq"/><use transform="matrix(0.05,0,0,0.05,68.2,0)" xlink:href="#au"/><use transform="matrix(0.05,0,0,0.05,78.2,0)" xlink:href="#az"/></g><path fill="#333" d="M146-102V0H94v-102L6-248h54l60 105 60-105h54" id="bb"/><path fill="#333" d="M24 0v-248h195v40H76v63h132v40H76v65h150V0H24" id="bc"/><path fill="#333" d="M169-182c-1-43-94-46-97-3 18 66 151 10 154 114 3 95-165 93-204 36-6-8-10-19-12-30l50-8c3 46 112 56 116 5-17-69-150-10-154-114-4-87 153-88 188-35 5 8 8 18 10 28" id="bd"/><g id="n"><use transform="matrix(0.04320987654320988,0,0,0.04320987654320988,0,0)" xlink:href="#bb"/><use transform="matrix(0.04320987654320988,0,0,0.04320987654320988,10.370370370370372,0)" xlink:href="#bc"/><use transform="matrix(0.04320987654320988,0,0,0.04320987654320988,20.740740740740744,0)" xlink:href="#bd"/></g><path fill="#333" d="M175 0L67-191c6 58 2 128 3 191H24v-248h59L193-55c-6-58-2-129-3-193h46V0h-61" id="be"/><path fill="#333" d="M140-251c80 0 125 45 125 126S219 4 139 4C58 4 15-44 15-125s44-126 125-126zm-1 214c52 0 73-35 73-88 0-50-21-86-72-86-52 0-73 35-73 86s22 88 72 88" id="bf"/><g id="o"><use transform="matrix(0.04320987654320988,0,0,0.04320987654320988,0,0)" xlink:href="#be"/><use transform="matrix(0.04320987654320988,0,0,0.04320987654320988,11.19135802469136,0)" xlink:href="#bf"/></g><path fill="#333" d="M140-251c81 0 123 46 123 126C263-46 219 4 140 4 59 4 17-45 17-125s42-126 123-126zm0 227c63 0 89-41 89-101s-29-99-89-99c-61 0-89 39-89 99S79-25 140-24" id="bg"/><path fill="#333" d="M179-190L93 31C79 59 56 82 12 73V49c39 6 53-20 64-50L1-190h34L92-34l54-156h33" id="bh"/><g id="p"><use transform="matrix(0.05,0,0,0.05,0,0)" xlink:href="#bg"/><use transform="matrix(0.05,0,0,0.05,14,0)" xlink:href="#aT"/><use transform="matrix(0.05,0,0,0.05,24,0)" xlink:href="#aJ"/><use transform="matrix(0.05,0,0,0.05,27.950000000000003,0)" xlink:href="#bh"/></g><path fill="#333" d="M63-220v92h138v28H63V0H30v-248h175v28H63" id="bi"/><path fill="#333" d="M115-194c53 0 69 39 70 98 0 66-23 100-70 100C84 3 66-7 56-30L54 0H23l1-261h32v101c10-23 28-34 59-34zm-8 174c40 0 45-34 45-75 0-40-5-75-45-74-42 0-51 32-51 76 0 43 10 73 51 73" id="bj"/><path fill="#333" d="M143 0L79-87 56-68V0H24v-261h32v163l83-92h37l-77 82L181 0h-38" id="bk"/><g id="q"><use transform="matrix(0.05,0,0,0.05,0,0)" xlink:href="#bi"/><use transform="matrix(0.05,0,0,0.05,10.950000000000001,0)" xlink:href="#aF"/><use transform="matrix(0.05,0,0,0.05,20.950000000000003,0)" xlink:href="#aL"/><use transform="matrix(0.05,0,0,0.05,29.950000000000003,0)" xlink:href="#aM"/><use transform="matrix(0.05,0,0,0.05,39.95,0)" xlink:href="#bj"/><use transform="matrix(0.05,0,0,0.05,49.95,0)" xlink:href="#aI"/><use transform="matrix(0.05,0,0,0.05,59.95,0)" xlink:href="#aI"/><use transform="matrix(0.05,0,0,0.05,69.95,0)" xlink:href="#bk"/></g><path fill="#333" d="M26 75v-336h71v23H56V52h41v23H26" id="bl"/><path fill="#333" d="M3 75V52h41v-290H3v-23h71V75H3" id="bm"/><g id="r"><use transform="matrix(0.05,0,0,0.05,0,0)" xlink:href="#bl"/><use transform="matrix(0.05,0,0,0.05,5,0)" xlink:href="#aW"/><use transform="matrix(0.05,0,0,0.05,15,0)" xlink:href="#bm"/></g><path fill="#a9afb8" d="M76-208v77h127v40H76V0H24v-248h183v40H76" id="bn"/><path fill="#a9afb8" d="M25 0v-261h50V0H25" id="bo"/><path fill="#a9afb8" d="M110-194c64 0 96 36 96 99 0 64-35 99-97 99-61 0-95-36-95-99 0-62 34-99 96-99zm-1 164c35 0 45-28 45-65 0-40-10-65-43-65-34 0-45 26-45 65 0 36 10 65 43 65" id="bp"/><path fill="#a9afb8" d="M231 0h-52l-39-155L100 0H48L-1-190h46L77-45c9-52 24-97 36-145h53l37 145 32-145h46" id="bq"/><path fill="#a9afb8" d="M190-63c-7 42-38 67-86 67-59 0-84-38-90-98-12-110 154-137 174-36l-49 2c-2-19-15-32-35-32-30 0-35 28-38 64-6 74 65 87 74 30" id="br"/><path fill="#a9afb8" d="M114-157C55-157 80-60 75 0H25v-261h50l-1 109c12-26 28-41 61-42 86-1 58 113 63 194h-50c-7-57 23-157-34-157" id="bs"/><path fill="#a9afb8" d="M133-34C117-15 103 5 69 4 32 3 11-16 11-54c-1-60 55-63 116-61 1-26-3-47-28-47-18 1-26 9-28 27l-52-2c7-38 36-58 82-57s74 22 75 68l1 82c-1 14 12 18 25 15v27c-30 8-71 5-69-32zm-48 3c29 0 43-24 42-57-32 0-66-3-65 30 0 17 8 27 23 27" id="bt"/><path fill="#a9afb8" d="M135-150c-39-12-60 13-60 57V0H25l-1-190h47c2 13-1 29 3 40 6-28 27-53 61-41v41" id="bu"/><path fill="#a9afb8" d="M115-3C79 11 28 4 28-45v-112H4v-33h27l15-45h31v45h36v33H77v99c-1 23 16 31 38 25v30" id="bv"/><g id="s"><use transform="matrix(0.0728395061728395,0,0,0.0728395061728395,0,0)" xlink:href="#bn"/><use transform="matrix(0.0728395061728395,0,0,0.0728395061728395,15.95185185185185,0)" xlink:href="#bo"/><use transform="matrix(0.0728395061728395,0,0,0.0728395061728395,23.235802469135802,0)" xlink:href="#bp"/><use transform="matrix(0.0728395061728395,0,0,0.0728395061728395,39.187654320987654,0)" xlink:href="#bq"/><use transform="matrix(0.0728395061728395,0,0,0.0728395061728395,59.582716049382704,0)" xlink:href="#br"/><use transform="matrix(0.0728395061728395,0,0,0.0728395061728395,74.15061728395061,0)" xlink:href="#bs"/><use transform="matrix(0.0728395061728395,0,0,0.0728395061728395,90.10246913580247,0)" xlink:href="#bt"/><use transform="matrix(0.0728395061728395,0,0,0.0728395061728395,104.67037037037036,0)" xlink:href="#bu"/><use transform="matrix(0.0728395061728395,0,0,0.0728395061728395,114.8679012345679,0)" xlink:href="#bv"/></g><path fill="#a9afb8" d="M185-189c-5-48-123-54-124 2 14 75 158 14 163 119 3 78-121 87-175 55-17-10-28-26-33-46l33-7c5 56 141 63 141-1 0-78-155-14-162-118-5-82 145-84 179-34 5 7 8 16 11 25" id="bw"/><path fill="#a9afb8" d="M141-36C126-15 110 5 73 4 37 3 15-17 15-53c-1-64 63-63 125-63 3-35-9-54-41-54-24 1-41 7-42 31l-33-3c5-37 33-52 76-52 45 0 72 20 72 64v82c-1 20 7 32 28 27v20c-31 9-61-2-59-35zM48-53c0 20 12 33 32 33 41-3 63-29 60-74-43 2-92-5-92 41" id="bx"/><path fill="#a9afb8" d="M24-231v-30h32v30H24zM24 0v-190h32V0H24" id="by"/><path fill="#a9afb8" d="M179-190L93 31C79 59 56 82 12 73V49c39 6 53-20 64-50L1-190h34L92-34l54-156h33" id="bz"/><path fill="#a9afb8" d="M117-194c89-4 53 116 60 194h-32v-121c0-31-8-49-39-48C34-167 62-67 57 0H25l-1-190h30c1 10-1 24 2 32 11-22 29-35 61-36" id="bA"/><g id="t"><use transform="matrix(0.04248971193415638,0,0,0.04248971193415638,0,0)" xlink:href="#bw"/><use transform="matrix(0.04248971193415638,0,0,0.04248971193415638,10.19753086419753,0)" xlink:href="#bx"/><use transform="matrix(0.04248971193415638,0,0,0.04248971193415638,18.695473251028805,0)" xlink:href="#by"/><use transform="matrix(0.04248971193415638,0,0,0.04248971193415638,22.05216049382716,0)" xlink:href="#bz"/><use transform="matrix(0.04248971193415638,0,0,0.04248971193415638,29.700308641975308,0)" xlink:href="#bx"/><use transform="matrix(0.04248971193415638,0,0,0.04248971193415638,38.19825102880658,0)" xlink:href="#bA"/></g><path fill="#a9afb8" d="M143 4C61 4 22-44 18-125c-5-107 100-154 193-111 17 8 29 25 37 43l-32 9c-13-25-37-40-76-40-61 0-88 39-88 99 0 61 29 100 91 101 35 0 62-11 79-27v-45h-74v-28h105v86C228-13 192 4 143 4" id="bB"/><path fill="#a9afb8" d="M84 4C-5 8 30-112 23-190h32v120c0 31 7 50 39 49 72-2 45-101 50-169h31l1 190h-30c-1-10 1-25-2-33-11 22-28 36-60 37" id="bC"/><path fill="#a9afb8" d="M100-194c62-1 85 37 85 99 1 63-27 99-86 99S16-35 15-95c0-66 28-99 85-99zM99-20c44 1 53-31 53-75 0-43-8-75-51-75s-53 32-53 75 10 74 51 75" id="bD"/><g id="u"><use transform="matrix(0.04248971193415638,0,0,0.04248971193415638,0,0)" xlink:href="#bB"/><use transform="matrix(0.04248971193415638,0,0,0.04248971193415638,11.897119341563785,0)" xlink:href="#bC"/><use transform="matrix(0.04248971193415638,0,0,0.04248971193415638,20.39506172839506,0)" xlink:href="#bD"/></g><path fill="#a9afb8" d="M32 76v-337h29V76H32" id="bE"/><use transform="matrix(0.04248971193415638,0,0,0.04248971193415638,0,0)" xlink:href="#bE" id="v"/><path fill="#a9afb8" d="M153-248C145-148 188 4 80 4 36 3 13-21 6-62l32-5c4 25 16 42 43 43 27 0 39-20 39-49v-147H72v-28h81" id="bF"/><path fill="#a9afb8" d="M24 0v-261h32V0H24" id="bG"/><g id="w"><use transform="matrix(0.04248971193415638,0,0,0.04248971193415638,0,0)" xlink:href="#bF"/><use transform="matrix(0.04248971193415638,0,0,0.04248971193415638,7.648148148148148,0)" xlink:href="#bC"/><use transform="matrix(0.04248971193415638,0,0,0.04248971193415638,16.14609053497942,0)" xlink:href="#bG"/><use transform="matrix(0.04248971193415638,0,0,0.04248971193415638,19.502777777777776,0)" xlink:href="#bz"/></g><path fill="#a9afb8" d="M64 0c3-98 48-159 88-221H18v-27h164v26C143-157 98-101 97 0H64" id="bH"/><path fill="#a9afb8" d="M68-38c1 34 0 65-14 84H32c9-13 17-26 17-46H33v-38h35" id="bI"/><g id="x"><use transform="matrix(0.04248971193415638,0,0,0.04248971193415638,0,0)" xlink:href="#bH"/><use transform="matrix(0.04248971193415638,0,0,0.04248971193415638,8.497942386831275,0)" xlink:href="#bI"/></g><path fill="#a9afb8" d="M101-251c82-7 93 87 43 132L82-64C71-53 59-42 53-27h129V0H18c2-99 128-94 128-182 0-28-16-43-45-43s-46 15-49 41l-32-3c6-41 34-60 81-64" id="bJ"/><path fill="#a9afb8" d="M101-251c68 0 85 55 85 127S166 4 100 4C33 4 14-52 14-124c0-73 17-127 87-127zm-1 229c47 0 54-49 54-102s-4-102-53-102c-51 0-55 48-55 102 0 53 5 102 54 102" id="bK"/><path fill="#a9afb8" d="M126-127c33 6 58 20 58 59 0 88-139 92-164 29-3-8-5-16-6-25l32-3c6 27 21 44 54 44 32 0 52-15 52-46 0-38-36-46-79-43v-28c39 1 72-4 72-42 0-27-17-43-46-43-28 0-47 15-49 41l-32-3c6-42 35-63 81-64 48-1 79 21 79 65 0 36-21 52-52 59" id="bL"/><g id="y"><use transform="matrix(0.04248971193415638,0,0,0.04248971193415638,0,0)" xlink:href="#bJ"/><use transform="matrix(0.04248971193415638,0,0,0.04248971193415638,8.497942386831275,0)" xlink:href="#bK"/><use transform="matrix(0.04248971193415638,0,0,0.04248971193415638,16.99588477366255,0)" xlink:href="#bJ"/><use transform="matrix(0.04248971193415638,0,0,0.04248971193415638,25.493827160493822,0)" xlink:href="#bL"/></g><path d="M24-248c120-7 223 5 221 122C244-46 201 0 124 0H24v-248zM76-40c74 7 117-18 117-86 0-67-45-88-117-82v168" id="bM"/><path d="M25-224v-37h50v37H25zM25 0v-190h50V0H25" id="bN"/><path d="M133-34C117-15 103 5 69 4 32 3 11-16 11-54c-1-60 55-63 116-61 1-26-3-47-28-47-18 1-26 9-28 27l-52-2c7-38 36-58 82-57s74 22 75 68l1 82c-1 14 12 18 25 15v27c-30 8-71 5-69-32zm-48 3c29 0 43-24 42-57-32 0-66-3-65 30 0 17 8 27 23 27" id="bO"/><path d="M195-6C206 82 75 100 31 46c-4-6-6-13-8-21l49-6c3 16 16 24 34 25 40 0 42-37 40-79-11 22-30 35-61 35-53 0-70-43-70-97 0-56 18-96 73-97 30 0 46 14 59 34l2-30h47zm-90-29c32 0 41-27 41-63 0-35-9-62-40-62-32 0-39 29-40 63 0 36 9 62 39 62" id="bP"/><path d="M135-150c-39-12-60 13-60 57V0H25l-1-190h47c2 13-1 29 3 40 6-28 27-53 61-41v41" id="bQ"/><path d="M220-157c-53 9-28 100-34 157h-49v-107c1-27-5-49-29-50C55-147 81-57 75 0H25l-1-190h47c2 12-1 28 3 38 10-53 101-56 108 0 13-22 24-43 59-42 82 1 51 116 57 194h-49v-107c-1-25-5-48-29-50" id="bR"/><g id="z"><use transform="matrix(0.05,0,0,0.05,0,0)" xlink:href="#bM"/><use transform="matrix(0.05,0,0,0.05,12.950000000000001,0)" xlink:href="#bN"/><use transform="matrix(0.05,0,0,0.05,17.950000000000003,0)" xlink:href="#bO"/><use transform="matrix(0.05,0,0,0.05,27.950000000000003,0)" xlink:href="#bP"/><use transform="matrix(0.05,0,0,0.05,38.900000000000006,0)" xlink:href="#bQ"/><use transform="matrix(0.05,0,0,0.05,45.900000000000006,0)" xlink:href="#bO"/><use transform="matrix(0.05,0,0,0.05,55.900000000000006,0)" xlink:href="#bR"/></g><path d="M195 0l-88-114-31 24V0H24v-248h52v113l112-113h60L142-143 257 0h-62" id="bS"/><path d="M185-48c-13 30-37 53-82 52C43 2 14-33 14-96s30-98 90-98c62 0 83 45 84 108H66c0 31 8 55 39 56 18 0 30-7 34-22zm-45-69c5-46-57-63-70-21-2 6-4 13-4 21h74" id="bT"/><path d="M123 10C108 53 80 86 19 72V37c35 8 53-11 59-39L3-190h52l48 148c12-52 28-100 44-148h51" id="bU"/><g id="A"><use transform="matrix(0.05,0,0,0.05,0,0)" xlink:href="#bS"/><use transform="matrix(0.05,0,0,0.05,12.950000000000001,0)" xlink:href="#bT"/><use transform="matrix(0.05,0,0,0.05,22.950000000000003,0)" xlink:href="#bU"/></g><path d="M137-103V0h-34v-103L8-248h37l75 118 75-118h37" id="bV"/><path d="M100-194c63 0 86 42 84 106H49c0 40 14 67 53 68 26 1 43-12 49-29l28 8c-11 28-37 45-77 45C44 4 14-33 15-96c1-61 26-98 85-98zm52 81c6-60-76-77-97-28-3 7-6 17-6 28h103" id="bW"/><path d="M135-143c-3-34-86-38-87 0 15 53 115 12 119 90S17 21 10-45l28-5c4 36 97 45 98 0-10-56-113-15-118-90-4-57 82-63 122-42 12 7 21 19 24 35" id="bX"/><g id="B"><use transform="matrix(0.03888888888888889,0,0,0.03888888888888889,0,0)" xlink:href="#bV"/><use transform="matrix(0.03888888888888889,0,0,0.03888888888888889,8.05,0)" xlink:href="#bW"/><use transform="matrix(0.03888888888888889,0,0,0.03888888888888889,15.827777777777781,0)" xlink:href="#bX"/></g><path d="M190 0L58-211 59 0H30v-248h39L202-35l-2-213h31V0h-41" id="bY"/><path d="M100-194c62-1 85 37 85 99 1 63-27 99-86 99S16-35 15-95c0-66 28-99 85-99zM99-20c44 1 53-31 53-75 0-43-8-75-51-75s-53 32-53 75 10 74 51 75" id="bZ"/><g id="C"><use transform="matrix(0.03888888888888889,0,0,0.03888888888888889,0,0)" xlink:href="#bY"/><use transform="matrix(0.03888888888888889,0,0,0.03888888888888889,10.072222222222223,0)" xlink:href="#bZ"/></g><path fill="#333" d="M212-179c-10-28-35-45-73-45-59 0-87 40-87 99 0 60 29 101 89 101 43 0 62-24 78-52l27 14C228-24 195 4 139 4 59 4 22-46 18-125c-6-104 99-153 187-111 19 9 31 26 39 46" id="ca"/><g id="D"><use transform="matrix(0.05,0,0,0.05,0,0)" xlink:href="#ca"/><use transform="matrix(0.05,0,0,0.05,12.950000000000001,0)" xlink:href="#aK"/><use transform="matrix(0.05,0,0,0.05,16.900000000000002,0)" xlink:href="#aP"/><use transform="matrix(0.05,0,0,0.05,21.900000000000002,0)" xlink:href="#bh"/></g><path fill="#333" d="M115-194c55 1 70 41 70 98S169 2 115 4C84 4 66-9 55-30l1 105H24l-1-265h31l2 30c10-21 28-34 59-34zm-8 174c40 0 45-34 45-75s-6-73-45-74c-42 0-51 32-51 76 0 43 10 73 51 73" id="cb"/><g id="E"><use transform="matrix(0.05,0,0,0.05,0,0)" xlink:href="#cb"/><use transform="matrix(0.05,0,0,0.05,10,0)" xlink:href="#aI"/><use transform="matrix(0.05,0,0,0.05,20,0)" xlink:href="#aJ"/><use transform="matrix(0.05,0,0,0.05,23.95,0)" xlink:href="#aK"/><use transform="matrix(0.05,0,0,0.05,27.899999999999995,0)" xlink:href="#aL"/><use transform="matrix(0.05,0,0,0.05,36.9,0)" xlink:href="#aM"/></g><g id="F"><use transform="matrix(0.05,0,0,0.05,0,0)" xlink:href="#aR"/><use transform="matrix(0.05,0,0,0.05,12,0)" xlink:href="#aL"/><use transform="matrix(0.05,0,0,0.05,21,0)" xlink:href="#aL"/><use transform="matrix(0.05,0,0,0.05,30,0)" xlink:href="#aI"/><use transform="matrix(0.05,0,0,0.05,40,0)" xlink:href="#aS"/><use transform="matrix(0.05,0,0,0.05,50,0)" xlink:href="#aT"/><use transform="matrix(0.05,0,0,0.05,60,0)" xlink:href="#aP"/><use transform="matrix(0.05,0,0,0.05,65,0)" xlink:href="#aG"/></g><use transform="matrix(0.05,0,0,0.05,0,0)" xlink:href="#aU" id="G"/><g id="H"><use transform="matrix(0.04320987654320988,0,0,0.04320987654320988,0,0)" xlink:href="#be"/><use transform="matrix(0.04320987654320988,0,0,0.04320987654320988,11.19135802469136,0)" xlink:href="#bf"/></g><g id="I"><use transform="matrix(0.05,0,0,0.05,0,0)" xlink:href="#ca"/><use transform="matrix(0.05,0,0,0.05,12.950000000000001,0)" xlink:href="#aI"/><use transform="matrix(0.05,0,0,0.05,22.950000000000003,0)" xlink:href="#aS"/><use transform="matrix(0.05,0,0,0.05,32.95,0)" xlink:href="#aT"/><use transform="matrix(0.05,0,0,0.05,42.95,0)" xlink:href="#aP"/><use transform="matrix(0.05,0,0,0.05,47.95,0)" xlink:href="#aQ"/><use transform="matrix(0.05,0,0,0.05,53.900000000000006,0)" xlink:href="#bh"/></g><path fill="#333" d="M108 0H70L1-190h34L89-25l56-165h34" id="cc"/><g id="J"><use transform="matrix(0.05,0,0,0.05,0,0)" xlink:href="#aJ"/><use transform="matrix(0.05,0,0,0.05,3.95,0)" xlink:href="#aM"/><use transform="matrix(0.05,0,0,0.05,13.949999999999998,0)" xlink:href="#cc"/><use transform="matrix(0.05,0,0,0.05,22.95,0)" xlink:href="#aM"/><use transform="matrix(0.05,0,0,0.05,32.95,0)" xlink:href="#aJ"/></g><path fill="#333" d="M64 0c3-98 48-159 88-221H18v-27h164v26C143-157 98-101 97 0H64" id="cd"/><g id="K"><use transform="matrix(0.05,0,0,0.05,0,0)" xlink:href="#bl"/><use transform="matrix(0.05,0,0,0.05,5,0)" xlink:href="#cd"/><use transform="matrix(0.05,0,0,0.05,15,0)" xlink:href="#bm"/></g><g id="L"><use transform="matrix(0.04320987654320988,0,0,0.04320987654320988,0,0)" xlink:href="#bb"/><use transform="matrix(0.04320987654320988,0,0,0.04320987654320988,10.370370370370372,0)" xlink:href="#bc"/><use transform="matrix(0.04320987654320988,0,0,0.04320987654320988,20.740740740740744,0)" xlink:href="#bd"/></g><path fill="#374151" d="M1288 0h-193v-673H361V0H169v-1456h192v626h734v-626h193V0" id="ce"/><path fill="#374151" d="M491 20c-241-1-355-148-355-398v-704h185v699c0 164 67 246 200 246 141 0 235-53 282-158v-787h185V0H812l-4-107C736-22 630 20 491 20" id="cf"/><path fill="#374151" d="M1240-945c-141 0-250 95-250 227V0H804v-709c0-157-77-236-231-236-121 0-204 52-249 155V0H139v-1082h175l5 120c79-93 186-140 321-140 151 0 254 58 309 174 69-98 181-174 345-174 237 0 362 126 362 377V0h-185v-714c-2-159-67-231-231-231" id="cg"/><path fill="#374151" d="M561-1102c238-4 403 126 403 351v498c0 99 13 178 38 237V0H808c-11-21-19-59-26-114C696-25 593 20 474 20c-199 0-368-130-365-320 4-251 214-359 490-356h180v-85c-1-135-86-212-229-212-115 0-232 67-233 171H131c20-205 206-316 430-320zM294-326c0 117 90 185 207 185 122 0 239-75 278-162v-222H634c-227 0-340 66-340 199" id="ch"/><path fill="#374151" d="M589-945c-131 0-219 81-264 174V0H140v-1082h175l6 136c83-104 191-156 324-156 229 0 346 129 346 387V0H806v-716c-2-153-65-229-217-229" id="ci"/><g id="M"><use transform="matrix(0.010416666666666668,0,0,0.010416666666666668,0,0)" xlink:href="#ce"/><use transform="matrix(0.010416666666666668,0,0,0.010416666666666668,15.208333333333336,0)" xlink:href="#cf"/><use transform="matrix(0.010416666666666668,0,0,0.010416666666666668,26.968750000000004,0)" xlink:href="#cg"/><use transform="matrix(0.010416666666666668,0,0,0.010416666666666668,45.66666666666667,0)" xlink:href="#ch"/><use transform="matrix(0.010416666666666668,0,0,0.010416666666666668,57.27083333333334,0)" xlink:href="#ci"/></g><path fill="#374151" d="M1175-1298H707V0H516v-1298H49v-158h1126v158" id="cj"/><path fill="#374151" d="M1098-255l208-827h185L1176 0h-150L763-820 507 0H357L43-1082h184l213 810 252-810h149" id="ck"/><path fill="#374151" d="M341 0H156v-1082h185V0zm-91-1264c-68 0-108-42-109-105 0-62 41-107 109-107s110 44 110 107-42 105-110 105" id="cl"/><path fill="#374151" d="M456 20C285 20 205-92 206-268v-671H9v-143h197v-262h185v262h202v143H391v671c-9 125 92 149 207 118V0c-49 13-96 20-142 20" id="cm"/><path fill="#374151" d="M599-131c141 0 220-65 285-146l113 88C906-50 770 20 589 20 281 21 93-214 93-545c0-223 93-397 233-485 74-48 154-72 240-72 300 2 449 218 445 537v77H278c0 197 129 357 321 357zm227-509c-3-180-88-310-260-310-170 0-264 140-282 310h542" id="cn"/><path fill="#374151" d="M663-916c-163-27-288 18-338 148V0H140v-1082h180l3 125c61-97 147-145 258-145 36 0 63 5 82 14v172" id="co"/><g id="N"><use transform="matrix(0.010416666666666668,0,0,0.010416666666666668,0,0)" xlink:href="#cj"/><use transform="matrix(0.010416666666666668,0,0,0.010416666666666668,12.135416666666668,0)" xlink:href="#ck"/><use transform="matrix(0.010416666666666668,0,0,0.010416666666666668,28.16666666666667,0)" xlink:href="#cl"/><use transform="matrix(0.010416666666666668,0,0,0.010416666666666668,33.34375000000001,0)" xlink:href="#cm"/><use transform="matrix(0.010416666666666668,0,0,0.010416666666666668,40.31250000000001,0)" xlink:href="#cm"/><use transform="matrix(0.010416666666666668,0,0,0.010416666666666668,47.28125000000001,0)" xlink:href="#cn"/><use transform="matrix(0.010416666666666668,0,0,0.010416666666666668,58.58333333333334,0)" xlink:href="#co"/><use transform="matrix(0.05,0,0,0.05,65.80208333333334,0)" xlink:href="#aU"/></g><path fill="#fff" d="M238-179c0 84-86 86-175 82L45 0H11l48-248c82 0 179-12 179 69zm-34 1c0-53-64-42-116-43l-19 98c63 0 135 9 135-55" id="cp"/><g id="O"><use transform="matrix(0.05,0,0,0.05,0,0)" xlink:href="#cp"/><use transform="matrix(0.05,0,0,0.05,12,0)" xlink:href="#aq"/><use transform="matrix(0.05,0,0,0.05,22,0)" xlink:href="#ay"/><use transform="matrix(0.05,0,0,0.05,25.950000000000003,0)" xlink:href="#aw"/><use transform="matrix(0.05,0,0,0.05,29.899999999999995,0)" xlink:href="#aY"/><use transform="matrix(0.05,0,0,0.05,38.9,0)" xlink:href="#as"/></g><path fill="#fff" d="M194-120c59 52 2 134-86 124-53-6-90-18-98-63l31-7c8 30 29 43 70 43 46 0 84-17 71-62-32-43-135-20-137-98-3-89 178-90 191-16l-30 9c-8-48-127-53-127 5 0 53 81 35 115 65" id="cq"/><g id="P"><use transform="matrix(0.05,0,0,0.05,0,0)" xlink:href="#cq"/><use transform="matrix(0.05,0,0,0.05,12,0)" xlink:href="#aq"/><use transform="matrix(0.05,0,0,0.05,22,0)" xlink:href="#aY"/><use transform="matrix(0.05,0,0,0.05,31,0)" xlink:href="#aw"/><use transform="matrix(0.05,0,0,0.05,34.95,0)" xlink:href="#at"/><use transform="matrix(0.05,0,0,0.05,44.95,0)" xlink:href="#ay"/></g><path fill="#fff" d="M222 0l43-216c-8 16-17 34-26 49L143 0h-22L81-216 41 0H11l48-248h42l38 208 116-208h45L252 0h-30" id="cr"/><g id="Q"><use transform="matrix(0.05,0,0,0.05,0,0)" xlink:href="#cr"/><use transform="matrix(0.05,0,0,0.05,14.950000000000001,0)" xlink:href="#as"/><use transform="matrix(0.05,0,0,0.05,24.950000000000003,0)" xlink:href="#ba"/><use transform="matrix(0.05,0,0,0.05,34.95,0)" xlink:href="#aw"/><use transform="matrix(0.05,0,0,0.05,38.900000000000006,0)" xlink:href="#at"/></g><path fill="#333" d="M160-131c35 5 61 23 61 61C221 17 115-2 30 0v-248c76 3 177-17 177 60 0 33-19 50-47 57zm-97-11c50-1 110 9 110-42 0-47-63-36-110-37v79zm0 115c55-2 124 14 124-45 0-56-70-42-124-44v89" id="cs"/><g id="S"><use transform="matrix(0.05,0,0,0.05,0,0)" xlink:href="#cs"/><use transform="matrix(0.05,0,0,0.05,12,0)" xlink:href="#aI"/><use transform="matrix(0.05,0,0,0.05,22,0)" xlink:href="#aP"/></g><g id="T"><use transform="matrix(0.05,0,0,0.05,0,0)" xlink:href="#aN"/><use transform="matrix(0.05,0,0,0.05,9.950000000000001,0)" xlink:href="#aO"/><use transform="matrix(0.05,0,0,0.05,22.900000000000002,0)" xlink:href="#aK"/><use transform="matrix(0.05,0,0,0.05,26.85,0)" xlink:href="#aP"/><use transform="matrix(0.05,0,0,0.05,31.85,0)" xlink:href="#aP"/><use transform="matrix(0.05,0,0,0.05,36.85,0)" xlink:href="#aM"/><use transform="matrix(0.05,0,0,0.05,46.85,0)" xlink:href="#aQ"/></g><path fill="#333" d="M87 75C49 33 22-17 22-94c0-76 28-126 65-167h31c-38 41-64 92-64 168S80 34 118 75H87" id="ct"/><path fill="#333" d="M209 0H11v-25l151-195H24v-28h176v25L50-27h159V0" id="cu"/><path fill="#333" d="M177-190C167-65 218 103 67 71c-23-6-38-20-44-43l32-5c15 47 100 32 89-28v-30C133-14 115 1 83 1 29 1 15-40 15-95c0-56 16-97 71-98 29-1 48 16 59 35 1-10 0-23 2-32h30zM94-22c36 0 50-32 50-73 0-42-14-75-50-75-39 0-46 34-46 75s6 73 46 73" id="cv"/><path fill="#333" d="M33-261c38 41 65 92 65 168S71 34 33 75H2C39 34 66-17 66-93S39-220 2-261h31" id="cw"/><g id="U"><use transform="matrix(0.05,0,0,0.05,0,0)" xlink:href="#ct"/><use transform="matrix(0.05,0,0,0.05,5.95,0)" xlink:href="#cu"/><use transform="matrix(0.05,0,0,0.05,16.900000000000002,0)" xlink:href="#aF"/><use transform="matrix(0.05,0,0,0.05,26.900000000000002,0)" xlink:href="#cv"/><use transform="matrix(0.05,0,0,0.05,36.900000000000006,0)" xlink:href="#aQ"/><use transform="matrix(0.05,0,0,0.05,42.85000000000001,0)" xlink:href="#aM"/><use transform="matrix(0.05,0,0,0.05,52.85,0)" xlink:href="#bj"/><use transform="matrix(0.05,0,0,0.05,62.85,0)" xlink:href="#cw"/></g><g id="V"><use transform="matrix(0.05,0,0,0.05,0,0)" xlink:href="#bl"/><use transform="matrix(0.05,0,0,0.05,5,0)" xlink:href="#aV"/><use transform="matrix(0.05,0,0,0.05,15,0)" xlink:href="#bm"/></g><path fill="#333" d="M101-251c82-7 93 87 43 132L82-64C71-53 59-42 53-27h129V0H18c2-99 128-94 128-182 0-28-16-43-45-43s-46 15-49 41l-32-3c6-41 34-60 81-64" id="cx"/><g id="W"><use transform="matrix(0.05,0,0,0.05,0,0)" xlink:href="#cx"/><use transform="matrix(0.05,0,0,0.05,10,0)" xlink:href="#aV"/></g><g id="X"><use transform="matrix(0.05,0,0,0.05,0,0)" xlink:href="#aR"/><use transform="matrix(0.05,0,0,0.05,12,0)" xlink:href="#aL"/><use transform="matrix(0.05,0,0,0.05,21,0)" xlink:href="#aL"/><use transform="matrix(0.05,0,0,0.05,30,0)" xlink:href="#aI"/><use transform="matrix(0.05,0,0,0.05,40,0)" xlink:href="#aS"/><use transform="matrix(0.05,0,0,0.05,50,0)" xlink:href="#aT"/><use transform="matrix(0.05,0,0,0.05,60,0)" xlink:href="#aP"/><use transform="matrix(0.05,0,0,0.05,65,0)" xlink:href="#aG"/></g><path fill="#fff" d="M14 0l48-248h34L48 0H14" id="cy"/><path fill="#fff" d="M198-190L69 30C53 58 25 83-20 72c4-11-1-27 19-22 33-1 43-29 59-52L20-190h32L79-34l84-156h35" id="cz"/><g id="Y"><use transform="matrix(0.05,0,0,0.05,0,0)" xlink:href="#av"/><use transform="matrix(0.05,0,0,0.05,12.950000000000001,0)" xlink:href="#cy"/><use transform="matrix(0.05,0,0,0.05,17.950000000000003,0)" xlink:href="#aw"/><use transform="matrix(0.05,0,0,0.05,21.900000000000002,0)" xlink:href="#ax"/><use transform="matrix(0.05,0,0,0.05,26.900000000000002,0)" xlink:href="#cz"/></g><g id="Z"><use transform="matrix(0.05,0,0,0.05,0,0)" xlink:href="#ar"/><use transform="matrix(0.05,0,0,0.05,10,0)" xlink:href="#aq"/><use transform="matrix(0.05,0,0,0.05,20,0)" xlink:href="#ay"/><use transform="matrix(0.05,0,0,0.05,23.95,0)" xlink:href="#aw"/><use transform="matrix(0.05,0,0,0.05,27.899999999999995,0)" xlink:href="#aY"/><use transform="matrix(0.05,0,0,0.05,36.9,0)" xlink:href="#as"/></g><g id="aa"><use transform="matrix(0.05,0,0,0.05,0,0)" xlink:href="#at"/><use transform="matrix(0.05,0,0,0.05,10,0)" xlink:href="#aY"/><use transform="matrix(0.05,0,0,0.05,19,0)" xlink:href="#aY"/><use transform="matrix(0.05,0,0,0.05,28,0)" xlink:href="#aq"/><use transform="matrix(0.05,0,0,0.05,38,0)" xlink:href="#ao"/><use transform="matrix(0.05,0,0,0.05,48,0)" xlink:href="#au"/><use transform="matrix(0.05,0,0,0.05,58,0)" xlink:href="#ax"/><use transform="matrix(0.05,0,0,0.05,63,0)" xlink:href="#az"/></g><path fill="#fff" d="M123-251c66 0 92 69 53 113C138-94 73-75 39-27h128l-5 27H-2c17-92 123-93 159-163 14-28-1-64-36-62-29 2-46 17-54 41l-30-6c13-36 37-61 86-61" id="cA"/><g id="ab"><use transform="matrix(0.05,0,0,0.05,0,0)" xlink:href="#aA"/><use transform="matrix(0.05,0,0,0.05,5,0)" xlink:href="#cA"/><use transform="matrix(0.05,0,0,0.05,15,0)" xlink:href="#cA"/><use transform="matrix(0.05,0,0,0.05,25,0)" xlink:href="#aD"/></g><path fill="#3a414a" d="M240 0l2-218c-23 76-54 145-80 218h-23L58-218 59 0H30v-248h44l77 211c21-75 51-140 76-211h43V0h-30" id="cB"/><path fill="#3a414a" d="M84 4C-5 8 30-112 23-190h32v120c0 31 7 50 39 49 72-2 45-101 50-169h31l1 190h-30c-1-10 1-25-2-33-11 22-28 36-60 37" id="cC"/><path fill="#3a414a" d="M24 0v-261h32V0H24" id="cD"/><path fill="#3a414a" d="M59-47c-2 24 18 29 38 22v24C64 9 27 4 27-40v-127H5v-23h24l9-43h21v43h35v23H59v120" id="cE"/><path fill="#3a414a" d="M24-231v-30h32v30H24zM24 0v-190h32V0H24" id="cF"/><g id="ac"><use transform="matrix(0.05,0,0,0.05,0,0)" xlink:href="#cB"/><use transform="matrix(0.05,0,0,0.05,14.950000000000001,0)" xlink:href="#cC"/><use transform="matrix(0.05,0,0,0.05,24.950000000000003,0)" xlink:href="#cD"/><use transform="matrix(0.05,0,0,0.05,28.900000000000002,0)" xlink:href="#cE"/><use transform="matrix(0.05,0,0,0.05,33.900000000000006,0)" xlink:href="#cF"/></g><path fill="#3a414a" d="M141-36C126-15 110 5 73 4 37 3 15-17 15-53c-1-64 63-63 125-63 3-35-9-54-41-54-24 1-41 7-42 31l-33-3c5-37 33-52 76-52 45 0 72 20 72 64v82c-1 20 7 32 28 27v20c-31 9-61-2-59-35zM48-53c0 20 12 33 32 33 41-3 63-29 60-74-43 2-92-5-92 41" id="cG"/><path fill="#3a414a" d="M96-169c-40 0-48 33-48 73s9 75 48 75c24 0 41-14 43-38l32 2c-6 37-31 61-74 61-59 0-76-41-82-99-10-93 101-131 147-64 4 7 5 14 7 22l-32 3c-4-21-16-35-41-35" id="cH"/><path fill="#3a414a" d="M100-194c62-1 85 37 85 99 1 63-27 99-86 99S16-35 15-95c0-66 28-99 85-99zM99-20c44 1 53-31 53-75 0-43-8-75-51-75s-53 32-53 75 10 74 51 75" id="cI"/><path fill="#3a414a" d="M117-194c89-4 53 116 60 194h-32v-121c0-31-8-49-39-48C34-167 62-67 57 0H25l-1-190h30c1 10-1 24 2 32 11-22 29-35 61-36" id="cJ"/><path fill="#3a414a" d="M135-143c-3-34-86-38-87 0 15 53 115 12 119 90S17 21 10-45l28-5c4 36 97 45 98 0-10-56-113-15-118-90-4-57 82-63 122-42 12 7 21 19 24 35" id="cK"/><g id="ad"><use transform="matrix(0.05,0,0,0.05,0,0)" xlink:href="#cG"/><use transform="matrix(0.05,0,0,0.05,10,0)" xlink:href="#cH"/><use transform="matrix(0.05,0,0,0.05,19,0)" xlink:href="#cH"/><use transform="matrix(0.05,0,0,0.05,28,0)" xlink:href="#cI"/><use transform="matrix(0.05,0,0,0.05,38,0)" xlink:href="#cC"/><use transform="matrix(0.05,0,0,0.05,48,0)" xlink:href="#cJ"/><use transform="matrix(0.05,0,0,0.05,58,0)" xlink:href="#cE"/><use transform="matrix(0.05,0,0,0.05,63,0)" xlink:href="#cK"/></g><path fill="#3a414a" d="M33-154v-36h34v36H33zM33 0v-36h34V0H33" id="cL"/><use transform="matrix(0.05,0,0,0.05,0,0)" xlink:href="#cL" id="ae"/><path fill="#3a414a" d="M160-131c35 5 61 23 61 61C221 17 115-2 30 0v-248c76 3 177-17 177 60 0 33-19 50-47 57zm-97-11c50-1 110 9 110-42 0-47-63-36-110-37v79zm0 115c55-2 124 14 124-45 0-56-70-42-124-44v89" id="cM"/><path fill="#3a414a" d="M100-194c63 0 86 42 84 106H49c0 40 14 67 53 68 26 1 43-12 49-29l28 8c-11 28-37 45-77 45C44 4 14-33 15-96c1-61 26-98 85-98zm52 81c6-60-76-77-97-28-3 7-6 17-6 28h103" id="cN"/><path fill="#3a414a" d="M114-163C36-179 61-72 57 0H25l-1-190h30c1 12-1 29 2 39 6-27 23-49 58-41v29" id="cO"/><g id="af"><use transform="matrix(0.05,0,0,0.05,0,0)" xlink:href="#cM"/><use transform="matrix(0.05,0,0,0.05,12,0)" xlink:href="#cN"/><use transform="matrix(0.05,0,0,0.05,22,0)" xlink:href="#cO"/><use transform="matrix(0.05,0,0,0.05,27.950000000000003,0)" xlink:href="#cD"/><use transform="matrix(0.05,0,0,0.05,31.899999999999995,0)" xlink:href="#cF"/><use transform="matrix(0.05,0,0,0.05,35.85,0)" xlink:href="#cJ"/></g><path fill="#3a414a" d="M101-251c82-7 93 87 43 132L82-64C71-53 59-42 53-27h129V0H18c2-99 128-94 128-182 0-28-16-43-45-43s-46 15-49 41l-32-3c6-41 34-60 81-64" id="cP"/><path fill="#3a414a" d="M68-38c1 34 0 65-14 84H32c9-13 17-26 17-46H33v-38h35" id="cQ"/><g id="ag"><use transform="matrix(0.05,0,0,0.05,0,0)" xlink:href="#cP"/><use transform="matrix(0.05,0,0,0.05,10,0)" xlink:href="#cQ"/></g><path fill="#3a414a" d="M30 0v-248h33v221h125V0H30" id="cR"/><path fill="#3a414a" d="M85-194c31 0 48 13 60 33l-1-100h32l1 261h-30c-2-10 0-23-3-31C134-8 116 4 85 4 32 4 16-35 15-94c0-66 23-100 70-100zm9 24c-40 0-46 34-46 75 0 40 6 74 45 74 42 0 51-32 51-76 0-42-9-74-50-73" id="cS"/><g id="ah"><use transform="matrix(0.05,0,0,0.05,0,0)" xlink:href="#cR"/><use transform="matrix(0.05,0,0,0.05,10,0)" xlink:href="#cI"/><use transform="matrix(0.05,0,0,0.05,20,0)" xlink:href="#cJ"/><use transform="matrix(0.05,0,0,0.05,30,0)" xlink:href="#cS"/><use transform="matrix(0.05,0,0,0.05,40,0)" xlink:href="#cI"/><use transform="matrix(0.05,0,0,0.05,50,0)" xlink:href="#cJ"/></g><path fill="#3a414a" d="M126-127c33 6 58 20 58 59 0 88-139 92-164 29-3-8-5-16-6-25l32-3c6 27 21 44 54 44 32 0 52-15 52-46 0-38-36-46-79-43v-28c39 1 72-4 72-42 0-27-17-43-46-43-28 0-47 15-49 41l-32-3c6-42 35-63 81-64 48-1 79 21 79 65 0 36-21 52-52 59" id="cT"/><g id="ai"><use transform="matrix(0.05,0,0,0.05,0,0)" xlink:href="#cT"/><use transform="matrix(0.05,0,0,0.05,10,0)" xlink:href="#cQ"/></g><path fill="#3a414a" d="M30-248c87 1 191-15 191 75 0 78-77 80-158 76V0H30v-248zm33 125c57 0 124 11 124-50 0-59-68-47-124-48v98" id="cU"/><g id="aj"><use transform="matrix(0.05,0,0,0.05,0,0)" xlink:href="#cU"/><use transform="matrix(0.05,0,0,0.05,12,0)" xlink:href="#cG"/><use transform="matrix(0.05,0,0,0.05,22,0)" xlink:href="#cO"/><use transform="matrix(0.05,0,0,0.05,27.950000000000003,0)" xlink:href="#cF"/><use transform="matrix(0.05,0,0,0.05,31.899999999999995,0)" xlink:href="#cK"/></g><g id="ak"><use transform="matrix(0.05,0,0,0.05,0,0)" xlink:href="#cP"/><use transform="matrix(0.05,0,0,0.05,10,0)" xlink:href="#cQ"/></g><path fill="#3a414a" d="M233-177c-1 41-23 64-60 70L243 0h-38l-65-103H63V0H30v-248c88 3 205-21 203 71zM63-129c60-2 137 13 137-47 0-61-80-42-137-45v92" id="cV"/><path fill="#3a414a" d="M210-169c-67 3-38 105-44 169h-31v-121c0-29-5-50-35-48C34-165 62-65 56 0H25l-1-190h30c1 10-1 24 2 32 10-44 99-50 107 0 11-21 27-35 58-36 85-2 47 119 55 194h-31v-121c0-29-5-49-35-48" id="cW"/><g id="al"><use transform="matrix(0.05,0,0,0.05,0,0)" xlink:href="#cV"/><use transform="matrix(0.05,0,0,0.05,12.950000000000001,0)" xlink:href="#cI"/><use transform="matrix(0.05,0,0,0.05,22.950000000000003,0)" xlink:href="#cW"/><use transform="matrix(0.05,0,0,0.05,37.900000000000006,0)" xlink:href="#cG"/></g><use transform="matrix(0.05,0,0,0.05,0,0)" xlink:href="#cP" id="am"/></defs></g></svg>